<svg width="106" height="24" viewBox="0 0 106 24" fill="none" xmlns="http://www.w3.org/2000/svg">
<path d="M89.9394 11.4622C89.9394 10.5579 90.1595 9.73721 90.5996 9.0003C91.0508 8.26339 91.645 7.67722 92.3823 7.24177C93.1306 6.80632 93.9559 6.5886 94.8583 6.5886H104.894V10.1224H94.8583C94.4621 10.1224 94.121 10.2564 93.8349 10.5244C93.5598 10.7812 93.4222 11.0938 93.4222 11.4622V11.8809C93.4222 12.2606 93.5598 12.5844 93.8349 12.8523C94.121 13.1203 94.4621 13.2543 94.8583 13.2543H101.098C102 13.2543 102.82 13.4776 103.557 13.9242C104.305 14.3596 104.9 14.9458 105.34 15.6827C105.78 16.4196 106 17.2403 106 18.1447V19.049C106 19.9423 105.78 20.7629 105.34 21.511C104.9 22.2479 104.305 22.8397 103.557 23.2863C102.82 23.7217 102 23.9394 101.098 23.9394H90.7152V20.4056H101.098C101.494 20.4056 101.829 20.2716 102.105 20.0037C102.391 19.7357 102.534 19.4119 102.534 19.0323V18.1614C102.534 17.7706 102.391 17.4412 102.105 17.1733C101.829 16.9053 101.494 16.7713 101.098 16.7713H94.8583C93.9559 16.7713 93.1306 16.5536 92.3823 16.1182C91.645 15.6716 91.0508 15.0798 90.5996 14.3429C90.1595 13.5948 89.9394 12.7742 89.9394 11.8809V11.4622Z" fill="white"/>
<path d="M70.8357 6.5886H74.3204V17.6255C74.3204 18.407 74.5847 19.0714 75.1132 19.6185C75.6417 20.1656 76.2747 20.4391 77.0124 20.4391H83.0735V6.5886H86.5582V20.4224C86.5582 21.3938 86.2169 22.2256 85.5343 22.9178C84.8516 23.5989 84.0204 23.9394 83.0405 23.9394H77.0124C75.8784 23.9394 74.8434 23.6603 73.9076 23.102C72.9717 22.5326 72.223 21.7734 71.6615 20.8243C71.111 19.8753 70.8357 18.8257 70.8357 17.6757V6.5886Z" fill="white"/>
<path d="M58.6635 11.4455C58.6635 10.5523 58.8851 9.73721 59.3282 9.0003C59.7824 8.26339 60.3807 7.67722 61.123 7.24177C61.8763 6.80632 62.7073 6.5886 63.6157 6.5886H67.4545V10.1057H63.6157C63.2169 10.1057 62.8734 10.2452 62.5854 10.5244C62.3084 10.7923 62.1699 11.1217 62.1699 11.5125V23.9394H58.6635V11.4455Z" fill="white"/>
<path d="M44.2935 6.54245H46.5243V0.0605628H50.011V6.54245H55.2823V10.0857H50.011V19.0025C50.011 19.3831 50.1542 19.7133 50.4406 19.9932C50.738 20.2619 51.0906 20.3962 51.4982 20.3962H55.2823V23.9394H51.4486C50.5453 23.9394 49.719 23.7211 48.9699 23.2845C48.2318 22.8367 47.6369 22.2434 47.1853 21.5045C46.7446 20.7545 46.5243 19.926 46.5243 19.0192V10.0857H44.2935V6.54245Z" fill="white"/>
<path d="M27.0494 12.8523C27.0494 11.7023 27.3243 10.6528 27.8739 9.70371C28.4345 8.75466 29.1821 8.00101 30.1165 7.44274C31.0508 6.87331 32.0842 6.5886 33.2164 6.5886H36.943C38.0753 6.5886 39.1086 6.87331 40.043 7.44274C40.9774 8.00101 41.7194 8.75466 42.2691 9.70371C42.8297 10.6528 43.11 11.7023 43.11 12.8523V17.6757C43.11 18.8257 42.8297 19.8753 42.2691 20.8243C41.7194 21.7734 40.9774 22.5326 40.043 23.102C39.1086 23.6603 38.0753 23.9394 36.943 23.9394H33.2164C32.0842 23.9394 31.0508 23.6603 30.1165 23.102C29.1821 22.5326 28.4345 21.7734 27.8739 20.8243C27.3243 19.8753 27.0494 18.8257 27.0494 17.6757V12.8523ZM30.5287 17.6422C30.5287 18.4015 30.7925 19.0546 31.3202 19.6017C31.8478 20.1377 32.4799 20.4056 33.2164 20.4056H36.943C37.6906 20.4056 38.3226 20.1377 38.8393 19.6017C39.367 19.0546 39.6308 18.4015 39.6308 17.6422V12.8858C39.6308 12.1266 39.367 11.479 38.8393 10.9431C38.3226 10.396 37.6906 10.1224 36.943 10.1224H33.2164C32.4799 10.1224 31.8478 10.396 31.3202 10.9431C30.7925 11.479 30.5287 12.1266 30.5287 12.8858V17.6422Z" fill="white"/>
<path d="M21.9227 0C22.8591 0 23.6184 0.771536 23.6184 1.72311V17.1428C23.6184 19.4284 22.5252 21.5434 20.5904 22.8711C19.8765 23.361 19.071 23.6999 18.2254 23.8665H18.2257C15.9337 24.3178 13.6892 23.6078 12.0986 21.9915C10.8241 20.6965 10.1221 18.9744 10.1221 17.1428V6.89762C10.1221 4.97363 8.58055 3.39498 6.68741 3.42927C4.85491 3.46225 3.37409 4.98732 3.37408 6.85719V16.9865H3.39109V22.2771C3.39106 23.2286 2.63197 24 1.69554 24C0.759131 24 2.09706e-05 23.2286 0 22.2771V6.85719C2.83922e-06 5.02562 0.701899 3.30354 1.97637 2.00847C3.5669 0.39252 5.81148 -0.317768 8.10344 0.13354C8.94905 0.300143 9.75464 0.63899 10.4685 1.12888C12.4033 2.45664 13.4965 4.57159 13.4965 6.85719V17.1024C13.4965 19.0264 15.038 20.6052 16.9312 20.5709C18.8243 20.5366 20.2445 19.0127 20.2445 17.1428L20.2443 7.01355H20.2271V1.72311C20.2271 0.771559 20.9863 3.71256e-05 21.9227 0Z" fill="white"/>
</svg>
