<svg width="37" height="28" viewBox="0 0 37 28" fill="none" xmlns="http://www.w3.org/2000/svg">
<path d="M22.9048 28H9.69048C7.01825 28 4.73512 27.0812 2.84107 25.2437C0.947024 23.4062 0 21.1604 0 18.5063C0 16.2312 0.690079 14.2042 2.07024 12.425C3.4504 10.6458 5.25635 9.50833 7.4881 9.0125C8.22222 6.32917 9.69048 4.15625 11.8929 2.49375C14.0952 0.83125 16.5913 0 19.381 0C22.4937 0 25.2026 0.998958 27.5077 2.99688C29.8129 4.99479 31.171 7.49583 31.5821 10.5C30.9655 10.5 30.3708 10.5656 29.7982 10.6969C29.2256 10.8281 28.675 11.0104 28.1464 11.2437C27.9115 9.05625 26.9571 7.21875 25.2833 5.73125C23.6095 4.24375 21.6421 3.5 19.381 3.5C16.9437 3.5 14.8661 4.35313 13.1482 6.05937C11.4304 7.76562 10.5714 9.82917 10.5714 12.25H9.69048C7.9873 12.25 6.53373 12.8479 5.32976 14.0437C4.12579 15.2396 3.52381 16.6833 3.52381 18.375C3.52381 20.0667 4.12579 21.5104 5.32976 22.7062C6.53373 23.9021 7.9873 24.5 9.69048 24.5H22.9048V28ZM28.1905 28C27.6913 28 27.2728 27.8323 26.9351 27.4969C26.5974 27.1615 26.4286 26.7458 26.4286 26.25V21C26.4286 20.5042 26.5974 20.0885 26.9351 19.7531C27.2728 19.4177 27.6913 19.25 28.1905 19.25V17.5C28.1905 16.5375 28.5355 15.7135 29.2256 15.0281C29.9157 14.3427 30.7452 14 31.7143 14C32.6833 14 33.5129 14.3427 34.203 15.0281C34.8931 15.7135 35.2381 16.5375 35.2381 17.5V19.25C35.7373 19.25 36.1558 19.4177 36.4935 19.7531C36.8312 20.0885 37 20.5042 37 21V26.25C37 26.7458 36.8312 27.1615 36.4935 27.4969C36.1558 27.8323 35.7373 28 35.2381 28H28.1905ZM29.9524 19.25H33.4762V17.5C33.4762 17.0042 33.3073 16.5885 32.9696 16.2531C32.6319 15.9177 32.2135 15.75 31.7143 15.75C31.2151 15.75 30.7966 15.9177 30.4589 16.2531C30.1212 16.5885 29.9524 17.0042 29.9524 17.5V19.25Z" fill="white"/>
</svg>
