<svg width="29" height="32" viewBox="0 0 29 32" fill="none" xmlns="http://www.w3.org/2000/svg">
<path d="M12.8889 32C9.15648 31.0667 6.07523 28.94 3.64514 25.62C1.21505 22.3 0 18.6133 0 14.56V4.8L12.8889 0L25.7778 4.8V14.56C25.7778 14.8267 25.7711 15.0933 25.7576 15.36C25.7442 15.6267 25.7241 15.8933 25.6972 16.16C25.4556 16.1067 25.2072 16.0667 24.9521 16.04C24.697 16.0133 24.4352 16 24.1667 16C23.8713 16 23.5894 16.0133 23.3208 16.04C23.0523 16.0667 22.7704 16.1067 22.475 16.16C22.5019 15.8933 22.522 15.6333 22.5354 15.38C22.5488 15.1267 22.5556 14.8533 22.5556 14.56V7L12.8889 3.4L3.22222 7V14.56C3.22222 17.7867 4.13519 20.72 5.96111 23.36C7.78704 26 10.0963 27.76 12.8889 28.64C13.4528 28.4533 14.0032 28.2267 14.5403 27.96C15.0773 27.6933 15.6009 27.3867 16.1111 27.04V30.8C15.6009 31.0667 15.0773 31.3 14.5403 31.5C14.0032 31.7 13.4528 31.8667 12.8889 32ZM20.7028 32C20.3269 32 20.0046 31.8667 19.7361 31.6C19.4676 31.3333 19.3333 31.0133 19.3333 30.64V25.36C19.3333 24.9867 19.4676 24.6667 19.7361 24.4C20.0046 24.1333 20.3269 24 20.7028 24H20.9444V22.4C20.9444 21.52 21.26 20.7667 21.891 20.14C22.522 19.5133 23.2806 19.2 24.1667 19.2C25.0528 19.2 25.8113 19.5133 26.4424 20.14C27.0734 20.7667 27.3889 21.52 27.3889 22.4V24H27.6306C28.0065 24 28.3287 24.1333 28.5972 24.4C28.8657 24.6667 29 24.9867 29 25.36V30.64C29 31.0133 28.8657 31.3333 28.5972 31.6C28.3287 31.8667 28.0065 32 27.6306 32H20.7028ZM22.5556 24H25.7778V22.4C25.7778 21.9467 25.6234 21.5667 25.3146 21.26C25.0058 20.9533 24.6231 20.8 24.1667 20.8C23.7102 20.8 23.3275 20.9533 23.0188 21.26C22.71 21.5667 22.5556 21.9467 22.5556 22.4V24Z" fill="white"/>
</svg>
