<svg width="32" height="32" viewBox="0 0 32 32" fill="none" xmlns="http://www.w3.org/2000/svg">
<path d="M15.6 28.4444H0V23.4667C0 22.4593 0.259259 21.5333 0.777778 20.6889C1.2963 19.8444 1.98519 19.2 2.84444 18.7556C4.68148 17.837 6.54815 17.1481 8.44444 16.6889C10.3407 16.2296 12.2667 16 14.2222 16V19.5556C12.563 19.5556 10.9185 19.7556 9.28889 20.1556C7.65926 20.5556 6.04444 21.1556 4.44444 21.9556C4.17778 22.1037 3.96296 22.3111 3.8 22.5778C3.63704 22.8444 3.55556 23.1407 3.55556 23.4667V24.8889H14.4444C14.563 25.5111 14.7185 26.1185 14.9111 26.7111C15.1037 27.3037 15.3333 27.8815 15.6 28.4444ZM24.8889 32C22.7259 31.4667 21 30.2815 19.7111 28.4444C18.4222 26.6074 17.7778 24.563 17.7778 22.3111V17.7778L24.8889 14.2222L32 17.7778V22.3111C32 24.563 31.3556 26.6074 30.0667 28.4444C28.7778 30.2815 27.0519 31.4667 24.8889 32ZM24.8889 28.2667C26.0148 27.7333 26.8889 26.9185 27.5111 25.8222C28.1333 24.7259 28.4444 23.5556 28.4444 22.3111V20L24.8889 18.2222L21.3333 20V22.3111C21.3333 23.5556 21.6444 24.7259 22.2667 25.8222C22.8889 26.9185 23.763 27.7333 24.8889 28.2667ZM14.2222 14.2222C12.2667 14.2222 10.5926 13.5259 9.2 12.1333C7.80741 10.7407 7.11111 9.06667 7.11111 7.11111C7.11111 5.15556 7.80741 3.48148 9.2 2.08889C10.5926 0.696296 12.2667 0 14.2222 0C16.1778 0 17.8519 0.696296 19.2444 2.08889C20.637 3.48148 21.3333 5.15556 21.3333 7.11111C21.3333 9.06667 20.637 10.7407 19.2444 12.1333C17.8519 13.5259 16.1778 14.2222 14.2222 14.2222ZM14.2222 10.6667C15.2 10.6667 16.037 10.3185 16.7333 9.62222C17.4296 8.92593 17.7778 8.08889 17.7778 7.11111C17.7778 6.13333 17.4296 5.2963 16.7333 4.6C16.037 3.9037 15.2 3.55556 14.2222 3.55556C13.2444 3.55556 12.4074 3.9037 11.7111 4.6C11.0148 5.2963 10.6667 6.13333 10.6667 7.11111C10.6667 8.08889 11.0148 8.92593 11.7111 9.62222C12.4074 10.3185 13.2444 10.6667 14.2222 10.6667Z" fill="white"/>
</svg>
