<svg width="35" height="26" viewBox="0 0 35 26" fill="none" xmlns="http://www.w3.org/2000/svg">
<path d="M3.18182 26C2.30682 26 1.55777 25.6818 0.934659 25.0453C0.311553 24.4089 0 23.6437 0 22.75V3.25C0 2.35625 0.311553 1.59115 0.934659 0.954687C1.55777 0.318229 2.30682 0 3.18182 0H28.6364C29.5114 0 30.2604 0.318229 30.8835 0.954687C31.5066 1.59115 31.8182 2.35625 31.8182 3.25V9.70937H28.6364V6.5L15.9091 14.625L3.18182 6.5V22.75H22.2727V26H3.18182ZM15.9091 11.375L28.6364 3.25H3.18182L15.9091 11.375ZM27.0455 26C26.5947 26 26.2169 25.8443 25.9119 25.5328C25.607 25.2214 25.4545 24.8354 25.4545 24.375V19.5C25.4545 19.0396 25.607 18.6536 25.9119 18.3422C26.2169 18.0307 26.5947 17.875 27.0455 17.875V16.25C27.0455 15.3562 27.357 14.5911 27.9801 13.9547C28.6032 13.3182 29.3523 13 30.2273 13C31.1023 13 31.8513 13.3182 32.4744 13.9547C33.0975 14.5911 33.4091 15.3562 33.4091 16.25V17.875C33.8598 17.875 34.2377 18.0307 34.5426 18.3422C34.8475 18.6536 35 19.0396 35 19.5V24.375C35 24.8354 34.8475 25.2214 34.5426 25.5328C34.2377 25.8443 33.8598 26 33.4091 26H27.0455ZM28.6364 17.875H31.8182V16.25C31.8182 15.7896 31.6657 15.4036 31.3608 15.0922C31.0559 14.7807 30.678 14.625 30.2273 14.625C29.7765 14.625 29.3987 14.7807 29.0938 15.0922C28.7888 15.4036 28.6364 15.7896 28.6364 16.25V17.875Z" fill="white"/>
</svg>
